<?xml version="1.0" encoding="UTF-8" standalone="no"?>
<svg width="12px" height="13px" viewBox="0 0 12 13" version="1.1" xmlns="http://www.w3.org/2000/svg" xmlns:xlink="http://www.w3.org/1999/xlink" xmlns:sketch="http://www.bohemiancoding.com/sketch/ns">
    <!-- Generator: Sketch 3.4.3 (16044) - http://www.bohemiancoding.com/sketch -->
    <title> copy</title>
    <desc>Created with Sketch.</desc>
    <defs></defs>
    <g id="BACK-OFFICE" stroke="none" stroke-width="1" fill="none" fill-rule="evenodd" sketch:type="MSPage">
        <g id="ACTORS-LIST" sketch:type="MSArtboardGroup" transform="translate(-820.000000, -449.000000)" fill="#666666">
            <g id="Created:-Oct-9,-2014-+-Group" sketch:type="MSLayerGroup" transform="translate(40.000000, 433.000000)">
                <g id="Group" sketch:type="MSShapeGroup">
                    <g>
                        <g id="Edit-+--copy" transform="translate(780.000000, 14.000000)">
                            <path d="M2.8359375,13.4179688 L3.546875,12.7070312 L1.7109375,10.8710938 L1,11.5820312 L1,12.4179688 L2,12.4179688 L2,13.4179688 L2.8359375,13.4179688 Z M6.921875,6.16796875 C6.921875,6.05338484 6.86458391,5.99609375 6.75,5.99609375 C6.69791641,5.99609375 6.65364602,6.01432273 6.6171875,6.05078125 L2.3828125,10.2851562 C2.34635398,10.3216148 2.328125,10.3658852 2.328125,10.4179688 C2.328125,10.5325527 2.38541609,10.5898438 2.5,10.5898438 C2.55208359,10.5898438 2.59635398,10.5716148 2.6328125,10.5351562 L6.8671875,6.30078125 C6.90364602,6.26432273 6.921875,6.22005234 6.921875,6.16796875 L6.921875,6.16796875 Z M6.5,4.66796875 L9.75,7.91796875 L3.25,14.4179688 L0,14.4179688 L0,11.1679688 L6.5,4.66796875 Z M11.8359375,5.41796875 C11.8359375,5.6940118 11.7395843,5.92838445 11.546875,6.12109375 L10.25,7.41796875 L7,4.16796875 L8.296875,2.87890625 C8.48437594,2.68098859 8.71874859,2.58203125 9,2.58203125 C9.27604305,2.58203125 9.51301984,2.68098859 9.7109375,2.87890625 L11.546875,4.70703125 C11.7395843,4.91015727 11.8359375,5.14713406 11.8359375,5.41796875 L11.8359375,5.41796875 Z" id="-copy"></path>
                        </g>
                    </g>
                </g>
            </g>
        </g>
    </g>
</svg>