<?xml version="1.0" encoding="UTF-8" standalone="no"?>
<svg width="15px" height="16px" viewBox="0 0 15 16" version="1.1" xmlns="http://www.w3.org/2000/svg" xmlns:xlink="http://www.w3.org/1999/xlink" xmlns:sketch="http://www.bohemiancoding.com/sketch/ns">
    <!-- Generator: Sketch 3.4.3 (16044) - http://www.bohemiancoding.com/sketch -->
    <title>Fill 3 Copy 2</title>
    <desc>Created with Sketch.</desc>
    <defs></defs>
    <g id="BACK-OFFICE" stroke="none" stroke-width="1" fill="none" fill-rule="evenodd" sketch:type="MSPage">
        <g id="ACTORS-LIST" sketch:type="MSArtboardGroup" transform="translate(-665.000000, -448.000000)" fill="#666666">
            <g id="Created:-Oct-9,-2014-+-Group" sketch:type="MSLayerGroup" transform="translate(40.000000, 433.000000)">
                <g id="Group" sketch:type="MSShapeGroup">
                    <g>
                        <g id="View-on-map-+-Fill-3-Copy-2" transform="translate(625.000000, 14.000000)">
                            <path d="M7.49635391,16.5 C11.6383082,16.5 15,13.1449275 15,9 C15,4.85507246 11.6383082,1.5 7.49635391,1.5 C3.35439961,1.5 0,4.85507246 0,9 C0,13.1449275 3.35439961,16.5 7.49635391,16.5 Z M10.9236753,4.39130435 L11.9299951,3.82608696 C13.3957219,5.06521739 14.3364123,6.92753623 14.3364123,9 C14.3364123,9.17391304 14.3291201,9.34782609 14.3145357,9.52173913 C14.2124453,9.43478261 14.0957705,9.35507246 13.9790958,9.2826087 C13.4978123,8.99275362 12.7102577,9.02173913 12.2289742,9.32608696 C12.2654351,9.45652174 12.3091881,9.60144928 12.2727273,9.73913043 C12.2289742,9.89855072 12.0758386,9.94202899 11.9810404,10.0797101 C11.8351969,10.2971014 11.9299951,10.3913043 12.0393777,10.5797101 C12.1050073,10.6884058 12.1706368,10.8333333 12.1925134,10.9637681 C12.2289742,11.2028986 12.0977151,11.3333333 11.9299951,11.4855072 C11.6674769,11.7101449 11.4122509,11.9275362 11.2299465,12.2318841 C10.9528439,12.6884058 11.0330579,13.115942 10.9820126,13.615942 C10.9455518,13.9927536 10.8361692,14.4347826 10.3840544,14.4637681 C10.0486145,14.4855072 9.75692756,14.3623188 9.58920758,14.0724638 C9.4214876,13.7826087 9.29022849,13.4637681 9.26835197,13.1231884 C9.24647545,12.8478261 9.29022849,12.5652174 9.25376762,12.2898551 C9.19543024,11.884058 8.95478853,11.5797101 8.62664074,11.3623188 C8.3932912,11.2101449 8.21098687,11.2463768 7.94117647,11.2898551 C7.59115216,11.3405797 7.11716091,11.326087 6.86193486,11.0289855 C6.65046184,10.7826087 6.65046184,10.442029 6.69421488,10.1376812 C6.73067574,9.89130435 6.84005834,9.6884058 6.91298007,9.46376812 C6.94944093,9.32608696 6.97131745,9.18115942 7.01507049,9.04347826 C7.08070005,8.82608696 7.19008264,8.60144928 7.37238697,8.46376812 C7.53281478,8.34057971 7.75157997,8.32608696 7.95576082,8.3115942 C8.44433641,8.28985507 8.86728245,8.50724638 9.34856587,8.52898551 C9.72775887,8.54347826 10.3111327,8.42028986 10.5153136,8.04347826 C10.6028196,7.86956522 10.7049101,7.23913043 10.5226057,7.07971014 C10.3403014,6.92753623 9.95381624,7.21014493 9.77880408,7.2826087 C9.3412737,7.44927536 8.90374332,7.47101449 8.44433641,7.44927536 C8.32766164,7.44202899 8.21098687,7.43478261 8.13806514,7.55072464 C8.09431211,7.63043478 8.11618862,7.74637681 8.07972776,7.83333333 C8.0140982,7.99275362 7.83179387,8.0942029 7.66407389,8.12318841 C7.37967914,8.17391304 6.9859018,8.02898551 6.9859018,7.6884058 C6.9859018,7.27536232 7.72241128,7.75362319 7.67136607,7.24637681 C7.62032086,6.80434783 7.72970345,6.33333333 8.24015557,6.28985507 C8.5828877,6.26086957 8.92561983,6.2173913 9.21001458,6.00724638 C9.38502674,5.87681159 9.57462324,5.70289855 9.69859018,5.52173913 C9.79338843,5.37681159 9.79338843,5.35507246 9.74234322,5.21014493 C9.70588235,5.10869565 9.5308702,4.76086957 9.39231891,4.76811594 C9.31210501,4.77536232 9.2610598,5.2173913 9.19543024,5.3115942 C8.91832766,5.6884058 7.72970345,5.61594203 8.11618862,5.04347826 C8.34953816,4.69565217 8.80165289,4.39130435 9.19543024,4.25362319 C9.43607195,4.16666667 9.58191541,4.24637681 9.8006806,4.37681159 C10.0048614,4.50724638 10.1725814,4.64492754 10.4278075,4.60144928 C10.5882353,4.57246377 10.7924161,4.49275362 10.9236753,4.39130435 L10.9236753,4.39130435 Z M2.51579971,8.4057971 C2.25328148,8.61594203 2.18765192,8.91304348 2.36266407,9.21014493 C2.45746232,9.37681159 2.55955275,9.52173913 2.26057365,9.54347826 C2.13660671,9.55072464 2.07097715,9.5 1.95430238,9.46376812 C1.82304327,9.42028986 1.66990763,9.4057971 1.52406417,9.4057971 C1.45843461,9.26086957 1.48031113,9.05797101 1.48031113,8.9057971 C1.46572679,8.5 1.47301896,8.10144928 1.48760331,7.70289855 C1.49489548,7.42753623 1.48031113,7.15217391 1.53864852,6.88405797 C1.58240156,6.6884058 1.64073894,6.5 1.66261546,6.29710145 C1.72824502,5.75362319 1.9761789,5.35507246 2.44287798,5.04347826 L2.94603792,5.1884058 C3.01166748,5.50724638 3.28877005,5.65217391 3.55858046,5.79710145 C3.78463782,5.92753623 3.95964998,6.19565217 4.08361692,6.42753623 C4.20758386,6.65217391 4.09090909,6.80434783 3.87943607,6.88405797 C3.60962567,6.98550725 3.33252309,7.10869565 3.20855615,7.39130435 C3.033544,7.78985507 2.85853184,8.12318841 2.51579971,8.4057971 L2.51579971,8.4057971 Z M4.91492465,5.36956522 C4.57948469,5.0942029 4.68886728,4.85507246 4.87846378,4.52898551 C5.14098201,4.0942029 4.98784638,3.50724638 4.54302382,3.22463768 L6.89839572,2.26811594 C7.09528439,2.24637681 7.29217307,2.23913043 7.49635391,2.23188406 C7.43072436,2.54347826 7.45260088,2.87681159 7.30675741,3.16666667 C7.1754983,3.43478261 6.97131745,3.63768116 6.75984443,3.85507246 C6.4973262,4.13043478 6.10354886,4.26811594 5.88478367,4.58695652 C5.69518717,4.85507246 5.37433155,5.76086957 4.91492465,5.36956522 L4.91492465,5.36956522 Z M1.69178415,11.4565217 C2.04910063,11.4855072 2.13660671,11.0869565 2.41370929,10.9782609 C2.6251823,10.8985507 3.0043753,10.8913043 3.2231405,10.9492754 C3.39815265,11.0072464 3.52941176,11.1014493 3.65337871,11.2318841 C3.84297521,11.4275362 4.05444823,11.6086957 4.26592124,11.7898551 C4.64511424,12.115942 5.16285853,12.1594203 5.5785124,12.4130435 C5.81186193,12.557971 5.7389402,12.7391304 5.58580457,12.9275362 C5.36703938,13.1956522 5.18473505,13.4637681 5.01701507,13.7681159 C4.77637336,14.1884058 4.21487603,14.2536232 3.89402042,14.615942 L3.85755955,14.6594203 C3.37627613,14.3478261 2.93145357,13.9710145 2.5449684,13.5434783 L1.69178415,11.4565217 L1.69178415,11.4565217 Z" id="Fill-3-Copy-2"></path>
                        </g>
                    </g>
                </g>
            </g>
        </g>
    </g>
</svg>