<?xml version="1.0" encoding="UTF-8" standalone="no"?>
<svg width="21px" height="13px" viewBox="0 0 21 13" version="1.1" xmlns="http://www.w3.org/2000/svg" xmlns:xlink="http://www.w3.org/1999/xlink" xmlns:sketch="http://www.bohemiancoding.com/sketch/ns">
    <!-- Generator: Sketch 3.4.3 (16044) - http://www.bohemiancoding.com/sketch -->
    <title>Shape + Oval</title>
    <desc>Created with Sketch.</desc>
    <defs></defs>
    <g id="BACK-OFFICE" stroke="none" stroke-width="1" fill="none" fill-rule="evenodd" sketch:type="MSPage">
        <g id="Shape-+-Oval" sketch:type="MSLayerGroup" fill="#666666">
            <path d="M20.4985734,6.27754358 C20.4981658,6.268596 20.4973505,6.26007451 20.4967391,6.25133997 C20.4963315,6.24686619 20.4961277,6.2423924 20.4957201,6.23813165 C20.4951087,6.23174053 20.4940896,6.22534941 20.4932744,6.21917133 C20.4924592,6.21171502 20.491644,6.20425871 20.4904211,6.19701543 C20.4902173,6.19616328 20.4900135,6.1950981 20.4900135,6.19424595 C20.4649455,6.02956803 20.3907603,5.8751159 20.2770369,5.75624103 C19.6268978,4.95074657 18.8534564,4.23387568 18.0669714,3.57921171 C16.373145,2.16847796 14.4359749,0.988250698 12.2976489,0.513177269 C11.0617731,0.238785081 9.81815266,0.227068024 8.57575509,0.459278803 C7.44565428,0.670611916 6.35651836,1.10989506 5.33708387,1.65441869 C3.74149158,2.50656834 2.28428315,3.68146967 1.01457566,4.99867999 C0.779588062,5.24239479 0.545823296,5.49122249 0.332235262,5.75602799 C0.0477229582,6.10839187 0.0477229582,6.52573216 0.332235262,6.87809604 C0.98237441,7.6835905 1.75581581,8.40024835 2.54230075,9.05512536 C4.23633104,10.4658591 6.17350113,11.6458733 8.31182713,12.1209468 C9.54770293,12.395552 10.7915271,12.407269 12.0339247,12.1750583 C13.1638217,11.9637252 14.2529576,11.524442 15.2725959,10.9799184 C16.8681882,10.1275557 18.3253966,8.9528674 19.5951041,7.63565708 C19.8300917,7.39172924 20.0638565,7.14311458 20.2774445,6.87830908 C20.3911679,6.75922117 20.4653531,6.60498208 20.4904211,6.44009112 C20.4904211,6.43923897 20.490625,6.43817379 20.4908288,6.43732164 C20.4920516,6.42986533 20.4928668,6.42262205 20.493682,6.41516574 C20.4944973,6.40898766 20.4955163,6.40259654 20.4961277,6.39620542 C20.4965353,6.39173163 20.4967391,6.38747088 20.4971467,6.3829971 C20.4977581,6.3744756 20.4985734,6.3659541 20.498981,6.35700653 C20.4995924,6.34379821 20.5,6.33058989 20.5,6.31716853 C20.5,6.30374718 20.4991848,6.2907519 20.4985734,6.27754358 L20.4985734,6.27754358 Z M10.3093236,10.4162214 C8.14348389,10.4162214 6.38790438,8.58111712 6.38790438,6.31716853 C6.38790438,4.05343299 8.14348389,2.21811568 10.3093236,2.21811568 C12.4751633,2.21811568 14.2307428,4.05321995 14.2307428,6.31716853 C14.2307428,8.58111712 12.4751633,10.4162214 10.3093236,10.4162214 L10.3093236,10.4162214 Z" id="Shape" sketch:type="MSShapeGroup"></path>
            <circle id="Oval" sketch:type="MSShapeGroup" cx="10.5" cy="6.5" r="1.5"></circle>
        </g>
    </g>
</svg>